HIERARCHY
ROOT Hips
{
	OFFSET 0.000000 71.427986 0.000000
	CHANNELS 6 Xposition Yposition Zposition Xrotation Yrotation Zrotation
	JOINT Pelvis
	{
		OFFSET 0.000000 0.000000 0.000000
		CHANNELS 3 Xrotation Yrotation Zrotation
		JOINT LeftUpLeg
		{
			OFFSET 6.797100 -2.508499 -1.318700
			CHANNELS 3 Xrotation Yrotation Zrotation
			JOINT LeftLeg
			{
				OFFSET 0.069008 -29.241863 0.690200
				CHANNELS 3 Xrotation Yrotation Zrotation
				JOINT LeftFoot
				{
					OFFSET -0.069008 -29.568123 -0.266800
					CHANNELS 3 Xrotation Yrotation Zrotation
					JOINT LeftToeBase
					{
						OFFSET 3.145500 -8.631000 16.059900
						CHANNELS 3 Xrotation Yrotation Zrotation
						End Site
						{
							OFFSET 0.000000 18.501587 0.000000
						}
					}
				}
			}
			JOINT Left_ShortSleeve
			{
				OFFSET 0.265923 -10.480953 1.153800
				CHANNELS 3 Xrotation Yrotation Zrotation
				End Site
				{
					OFFSET 1.725763 19.823879 0.000000
				}
			}
		}
		JOINT RightUpLeg
		{
			OFFSET -6.797100 -2.508499 -1.318700
			CHANNELS 3 Xrotation Yrotation Zrotation
			JOINT RightLeg
			{
				OFFSET -0.082453 -29.241932 0.688000
				CHANNELS 3 Xrotation Yrotation Zrotation
				JOINT RightFoot
				{
					OFFSET 0.082453 -29.568058 -0.264600
					CHANNELS 3 Xrotation Yrotation Zrotation
					JOINT RightToeBase
					{
						OFFSET -3.115300 -8.682800 16.113400
						CHANNELS 3 Xrotation Yrotation Zrotation
						End Site
						{
							OFFSET 0.000000 18.567114 0.000000
						}
					}
				}
			}
			JOINT Right_ShortSleeve
			{
				OFFSET -0.265923 -10.480953 1.153800
				CHANNELS 3 Xrotation Yrotation Zrotation
				End Site
				{
					OFFSET -1.725766 19.823910 0.000000
				}
			}
		}
	}
	JOINT Spine
	{
		OFFSET 0.000000 13.368103 0.470500
		CHANNELS 3 Xrotation Yrotation Zrotation
		JOINT Spine1
		{
			OFFSET 0.147000 13.837402 0.538800
			CHANNELS 3 Xrotation Yrotation Zrotation
			JOINT Spine2
			{
				OFFSET 0.168000 16.242897 -1.435500
				CHANNELS 3 Xrotation Yrotation Zrotation
				JOINT Neck
				{
					OFFSET 0.217200 18.631500 -1.679100
					CHANNELS 3 Xrotation Yrotation Zrotation
					JOINT Head
					{
						OFFSET 0.000000 6.599396 1.385900
						CHANNELS 3 Xrotation Yrotation Zrotation
						JOINT Hat
						{
							OFFSET -0.532200 27.220596 -10.096100
							CHANNELS 3 Xrotation Yrotation Zrotation
							End Site
							{
								OFFSET 0.000000 22.029861 0.000000
							}
						}
						JOINT HairD
						{
							OFFSET -10.777400 17.437393 -1.325900
							CHANNELS 3 Xrotation Yrotation Zrotation
							JOINT HairD1
							{
								OFFSET -3.290299 -11.051193 1.062200
								CHANNELS 3 Xrotation Yrotation Zrotation
								End Site
								{
									OFFSET 0.000000 11.579437 0.000000
								}
							}
						}
						JOINT HairB
						{
							OFFSET -10.777400 17.437393 1.467900
							CHANNELS 3 Xrotation Yrotation Zrotation
							JOINT HairB1
							{
								OFFSET -1.561200 -12.956299 3.590200
								CHANNELS 3 Xrotation Yrotation Zrotation
								End Site
								{
									OFFSET 0.000000 13.534866 0.000000
								}
							}
						}
						JOINT HairA
						{
							OFFSET 9.713100 17.437393 1.467900
							CHANNELS 3 Xrotation Yrotation Zrotation
							JOINT HairA1
							{
								OFFSET 1.561200 -12.956299 3.590200
								CHANNELS 3 Xrotation Yrotation Zrotation
								End Site
								{
									OFFSET 0.000000 13.534866 0.000000
								}
							}
						}
						JOINT HairC
						{
							OFFSET 9.713100 17.437393 -1.325900
							CHANNELS 3 Xrotation Yrotation Zrotation
							JOINT HairC1
							{
								OFFSET 3.290300 -11.051193 1.062200
								CHANNELS 3 Xrotation Yrotation Zrotation
								End Site
								{
									OFFSET 0.000000 11.579437 0.000000
								}
							}
						}
					}
				}
				JOINT LeftShoulder
				{
					OFFSET 5.101800 15.108002 -2.763700
					CHANNELS 3 Xrotation Yrotation Zrotation
					JOINT LeftArm
					{
						OFFSET 9.825497 2.506317 -1.597400
						CHANNELS 3 Xrotation Yrotation Zrotation
						JOINT LeftForeArm
						{
							OFFSET 21.966244 0.000000 0.000000
							CHANNELS 3 Xrotation Yrotation Zrotation
							JOINT LeftHand
							{
								OFFSET 33.879036 0.000000 0.000000
								CHANNELS 3 Xrotation Yrotation Zrotation
								JOINT LeftHandThumb1
								{
									OFFSET 6.715286 -2.359680 3.363841
									CHANNELS 3 Xrotation Yrotation Zrotation
									JOINT LeftHandThumb2
									{
										OFFSET 2.507072 -1.447464 1.447461
										CHANNELS 3 Xrotation Yrotation Zrotation
										JOINT LeftHandThumb3
										{
											OFFSET 2.898338 -1.673355 1.673357
											CHANNELS 3 Xrotation Yrotation Zrotation
											End Site
											{
												OFFSET -0.295959 3.727692 -0.131651
											}
										}
									}
								}
								JOINT LeftHandIndex1
								{
									OFFSET 14.190811 -0.254547 3.840278
									CHANNELS 3 Xrotation Yrotation Zrotation
									JOINT LeftHandIndex2
									{
										OFFSET 3.551727 0.000000 -0.000000
										CHANNELS 3 Xrotation Yrotation Zrotation
										JOINT LeftHandIndex3
										{
											OFFSET 2.894196 0.000000 0.000000
											CHANNELS 3 Xrotation Yrotation Zrotation
											End Site
											{
												OFFSET -1.000603 2.690872 0.366626
											}
										}
									}
								}
								JOINT LeftHandMiddle1
								{
									OFFSET 13.776489 0.000000 0.000000
									CHANNELS 3 Xrotation Yrotation Zrotation
									JOINT LeftHandMiddle2
									{
										OFFSET 3.438232 0.000000 0.000000
										CHANNELS 3 Xrotation Yrotation Zrotation
										JOINT LeftHandMiddle3
										{
											OFFSET 3.691551 0.000000 0.000000
											CHANNELS 3 Xrotation Yrotation Zrotation
											End Site
											{
												OFFSET -1.082298 3.499527 0.457670
											}
										}
									}
								}
								JOINT LeftHandRing1
								{
									OFFSET 13.966164 -0.268127 -3.067488
									CHANNELS 3 Xrotation Yrotation Zrotation
									JOINT LeftHandRing2
									{
										OFFSET 3.162567 0.000000 0.000000
										CHANNELS 3 Xrotation Yrotation Zrotation
										JOINT LeftHandRing3
										{
											OFFSET 3.324348 0.000000 0.000000
											CHANNELS 3 Xrotation Yrotation Zrotation
											End Site
											{
												OFFSET -0.861900 3.184998 0.405154
											}
										}
									}
								}
								JOINT LeftHandPinky1
								{
									OFFSET 13.131393 -0.168503 -5.746925
									CHANNELS 3 Xrotation Yrotation Zrotation
									JOINT LeftHandPinky2
									{
										OFFSET 2.849182 0.000000 0.000000
										CHANNELS 3 Xrotation Yrotation Zrotation
										JOINT LeftHandPinky3
										{
											OFFSET 2.805038 0.000000 0.000000
											CHANNELS 3 Xrotation Yrotation Zrotation
											End Site
											{
												OFFSET -0.882500 2.642609 0.325652
											}
										}
									}
								}
							}
							JOINT Left_Sleeve
							{
								OFFSET 6.592125 -0.646545 0.805568
								CHANNELS 3 Xrotation Yrotation Zrotation
								End Site
								{
									OFFSET -0.000179 20.275787 -0.000000
								}
							}
						}
					}
				}
				JOINT RightShoulder
				{
					OFFSET -5.731700 15.108002 -2.763700
					CHANNELS 3 Xrotation Yrotation Zrotation
					JOINT RightArm
					{
						OFFSET -9.825497 2.506317 -1.597400
						CHANNELS 3 Xrotation Yrotation Zrotation
						JOINT RightForeArm
						{
							OFFSET -21.966242 0.000000 0.000000
							CHANNELS 3 Xrotation Yrotation Zrotation
							JOINT RightHand
							{
								OFFSET -33.879032 0.000000 0.000000
								CHANNELS 3 Xrotation Yrotation Zrotation
								JOINT RightHandThumb1
								{
									OFFSET -6.715286 -2.359680 3.363841
									CHANNELS 3 Xrotation Yrotation Zrotation
									JOINT RightHandThumb2
									{
										OFFSET -2.507072 -1.447464 1.447461
										CHANNELS 3 Xrotation Yrotation Zrotation
										JOINT RightHandThumb3
										{
											OFFSET -2.898338 -1.673355 1.673357
											CHANNELS 3 Xrotation Yrotation Zrotation
											End Site
											{
												OFFSET 0.295959 3.727692 -0.131651
											}
										}
									}
								}
								JOINT RightHandIndex1
								{
									OFFSET -14.190811 -0.254547 3.840278
									CHANNELS 3 Xrotation Yrotation Zrotation
									JOINT RightHandIndex2
									{
										OFFSET -3.551727 0.000000 -0.000000
										CHANNELS 3 Xrotation Yrotation Zrotation
										JOINT RightHandIndex3
										{
											OFFSET -2.894196 0.000000 0.000000
											CHANNELS 3 Xrotation Yrotation Zrotation
											End Site
											{
												OFFSET 1.000603 2.690872 0.366626
											}
										}
									}
								}
								JOINT RightHandMiddle1
								{
									OFFSET -13.776489 0.000000 0.000000
									CHANNELS 3 Xrotation Yrotation Zrotation
									JOINT RightHandMiddle2
									{
										OFFSET -3.438232 0.000000 0.000000
										CHANNELS 3 Xrotation Yrotation Zrotation
										JOINT RightHandMiddle3
										{
											OFFSET -3.691551 0.000000 0.000000
											CHANNELS 3 Xrotation Yrotation Zrotation
											End Site
											{
												OFFSET 1.082298 3.499527 0.457670
											}
										}
									}
								}
								JOINT RightHandRing1
								{
									OFFSET -13.966164 -0.268127 -3.067488
									CHANNELS 3 Xrotation Yrotation Zrotation
									JOINT RightHandRing2
									{
										OFFSET -3.162567 0.000000 0.000000
										CHANNELS 3 Xrotation Yrotation Zrotation
										JOINT RightHandRing3
										{
											OFFSET -3.324348 0.000000 0.000000
											CHANNELS 3 Xrotation Yrotation Zrotation
											End Site
											{
												OFFSET 0.861900 3.184998 0.405154
											}
										}
									}
								}
								JOINT RightHandPinky1
								{
									OFFSET -13.131393 -0.168503 -5.746925
									CHANNELS 3 Xrotation Yrotation Zrotation
									JOINT RightHandPinky2
									{
										OFFSET -2.849182 0.000000 0.000000
										CHANNELS 3 Xrotation Yrotation Zrotation
										JOINT RightHandPinky3
										{
											OFFSET -2.805038 0.000000 0.000000
											CHANNELS 3 Xrotation Yrotation Zrotation
											End Site
											{
												OFFSET 0.882500 2.642609 0.325652
											}
										}
									}
								}
							}
							JOINT Right_Sleeve
							{
								OFFSET -6.592125 -0.646545 0.805568
								CHANNELS 3 Xrotation Yrotation Zrotation
								End Site
								{
									OFFSET 0.000179 20.275787 -0.000000
								}
							}
						}
					}
				}
				JOINT Bind_Right_JacketString
				{
					OFFSET -3.534800 11.969597 7.200700
					CHANNELS 3 Xrotation Yrotation Zrotation
					JOINT Bind_Right_JacketString1
					{
						OFFSET -0.319900 -6.102600 2.794100
						CHANNELS 3 Xrotation Yrotation Zrotation
						End Site
						{
							OFFSET 0.000000 6.719452 0.000000
						}
					}
				}
				JOINT Bind_Left_JacketString
				{
					OFFSET 2.904800 11.969597 7.200700
					CHANNELS 3 Xrotation Yrotation Zrotation
					JOINT Bind_Left_JacketString1
					{
						OFFSET 0.364800 -5.904503 3.186800
						CHANNELS 3 Xrotation Yrotation Zrotation
						End Site
						{
							OFFSET 0.000000 6.719513 0.000000
						}
					}
				}
				JOINT HairE
				{
					OFFSET 5.915200 17.612701 -11.592200
					CHANNELS 3 Xrotation Yrotation Zrotation
					JOINT HairE1
					{
						OFFSET 0.289200 -7.171898 -1.284500
						CHANNELS 3 Xrotation Yrotation Zrotation
						End Site
						{
							OFFSET 0.000000 7.291756 0.000000
						}
					}
				}
				JOINT HairF
				{
					OFFSET -0.864800 17.612701 -11.592200
					CHANNELS 3 Xrotation Yrotation Zrotation
					JOINT HairF1
					{
						OFFSET 0.000000 -14.087097 -2.127501
						CHANNELS 3 Xrotation Yrotation Zrotation
						End Site
						{
							OFFSET 0.000000 14.246841 0.000000
						}
					}
				}
				JOINT HairG
				{
					OFFSET -8.087700 17.612701 -11.592200
					CHANNELS 3 Xrotation Yrotation Zrotation
					JOINT HairG1
					{
						OFFSET -0.293600 -6.081398 -0.910100
						CHANNELS 3 Xrotation Yrotation Zrotation
						End Site
						{
							OFFSET 0.000000 6.156120 0.000000
						}
					}
				}
			}
		}
	}
	JOINT Pouch
	{
		OFFSET 0.000000 4.394501 10.847300
		CHANNELS 3 Xrotation Yrotation Zrotation
		End Site
		{
			OFFSET 0.000000 21.880577 0.000000
		}
	}
	JOINT Bag
	{
		OFFSET -13.229000 4.813004 -0.593300
		CHANNELS 3 Xrotation Yrotation Zrotation
		End Site
		{
			OFFSET 0.000000 21.880577 0.000000
		}
	}
	JOINT OccupyGuyFacialAnim_Joint
	{
		OFFSET 1.000000 -70.206398 -1.655000
		CHANNELS 3 Xrotation Yrotation Zrotation
		End Site
		{
			OFFSET 0.000000 21.880577 0.000000
		}
	}
}
MOTION
Frames: 4
Frame Time: 0.033333
-43.552410 58.170563 23.228991 -3.987508 16.296869 14.333089 0.000000 -0.000001 0.000000 -33.336060 26.249518 8.119049 93.460176 1.431041 -2.999085 -16.150834 4.073874 -5.591273 0.000000 -0.000000 0.000002 0.000001 -0.000000 -0.000002 -57.893045 19.251969 18.950481 71.199989 -2.574399 0.841612 0.488352 9.542993 -6.805346 0.000000 0.000000 -0.000000 -0.000001 -0.000002 -0.000003 5.191909 -4.173891 -3.294987 10.201946 -8.264226 -6.073276 10.201946 -8.264225 -6.073278 0.603113 -0.673195 1.802739 -35.325919 -8.562955 8.493822 -0.000000 0.000000 0.000000 -0.000000 0.000000 0.000000 -0.000000 0.000000 0.000000 -0.000000 0.000000 0.000000 -0.000000 0.000001 0.000000 -0.000000 0.000000 0.000000 -0.000000 0.000001 0.000000 -0.000000 0.000000 0.000000 -0.000000 0.000000 0.000000 -0.625267 3.408013 5.114689 32.718583 -18.744645 -36.508727 0.000054 -79.692851 0.000090 -7.526511 5.930890 7.251258 8.591716 -1.844228 13.644473 0.625915 0.078950 -1.235826 0.000001 0.000003 -0.000003 -0.001597 0.775026 0.164346 0.067854 0.966330 -8.034326 -0.000004 0.000003 -0.000003 -0.005544 1.806776 0.301011 0.068062 0.967681 -8.045643 -0.000001 -0.000002 -0.000003 -0.004886 1.515244 0.276239 0.068593 0.971539 -8.077999 -0.000005 0.000000 0.000001 -0.044492 5.609115 0.807303 0.059307 -3.083200 -8.585172 0.000000 0.000001 -0.000000 -0.000002 -0.000002 0.000001 -0.277814 -2.665050 3.534256 -1.775857 20.014792 56.123671 -0.000026 63.007027 0.000038 -21.334670 -12.128338 12.327480 -7.579666 0.354421 -4.091481 0.937935 -0.115746 1.884179 -0.000001 0.000000 0.000001 1.215018 -4.196948 24.121163 0.143693 -1.409082 11.644729 -0.000002 -0.000004 -0.000002 0.773250 -3.214737 24.225344 0.143758 -1.409365 11.647084 0.000005 0.000001 -0.000001 0.652742 -2.947459 24.250896 0.143869 -1.409958 11.652037 0.000000 -0.000002 0.000001 0.671129 -2.988233 24.247110 0.144390 -1.412438 11.672859 -0.000000 0.000001 0.000001 -0.000001 0.000005 -0.000004 -0.000002 -0.000000 0.000000 -0.000002 0.000000 0.000000 -0.000002 -0.000000 0.000000 -0.000002 -0.000000 0.000000 -0.000002 -0.000000 0.000000 -0.000002 0.000000 0.000000 -0.000002 -0.000000 0.000000 -0.000002 -0.000000 0.000000 -0.000002 -0.000000 0.000000 -0.000002 0.000000 0.000000 0.000000 -0.000001 0.000000 0.000000 -0.000001 0.000000 0.000000 -0.000001 0.000000 
-41.814789 58.849281 23.878517 -5.364519 11.669889 13.833668 -0.000000 0.000000 0.000000 -32.090872 21.580956 12.955158 86.001412 1.548332 -2.636414 -20.340676 5.460335 -11.487867 -0.000001 0.000001 -0.000001 -0.000004 -0.000002 -0.000001 -51.921985 15.377056 15.157971 70.938133 -2.486220 1.158833 -3.336534 13.094238 -10.058923 -0.000000 -0.000000 -0.000000 0.000000 0.000002 0.000002 5.019743 -3.427229 -3.122926 9.895906 -6.876494 -5.755418 9.895898 -6.876491 -5.755417 0.665804 -0.455694 1.767216 -30.256939 -11.560115 6.811196 -0.000001 -0.000000 0.000001 -0.000001 -0.000000 0.000001 -0.000001 -0.000000 0.000001 -0.000001 -0.000000 0.000001 -0.000000 -0.000000 0.000000 -0.000001 -0.000000 0.000001 -0.000000 -0.000000 0.000000 -0.000001 -0.000000 0.000001 -0.000001 -0.000000 0.000001 -0.679404 3.684600 5.313572 22.388373 -22.055796 -44.493731 -0.000010 -76.992679 0.000032 -6.717057 8.558424 12.277976 8.254390 -1.602394 13.248036 0.625933 0.078947 -1.235817 -0.000000 0.000001 -0.000001 0.001711 0.887568 -0.058442 0.065394 0.948700 -7.886828 0.000001 -0.000001 0.000001 -0.001960 1.856059 0.188871 0.065406 0.948665 -7.886687 0.000001 -0.000001 0.000001 -0.004733 1.492498 0.272020 0.068790 0.972877 -8.089101 0.000003 0.000002 -0.000000 -0.044036 5.510806 0.804493 0.059524 -3.081718 -8.597449 -0.000001 0.000003 0.000001 -0.000000 -0.000000 -0.000001 -0.306826 -2.690164 2.490344 -0.159661 17.461790 56.955885 0.000016 67.107995 -0.000031 -22.537382 -9.366956 6.196433 -7.383682 0.233814 -4.252804 0.914675 -0.113322 1.837514 -0.000000 0.000002 -0.000000 1.298266 -4.366388 24.334943 0.140229 -1.392171 11.503042 0.000002 0.000003 -0.000003 0.823125 -3.321584 24.399582 0.140227 -1.392174 11.503059 -0.000000 0.000000 0.000005 0.625676 -2.887496 24.254715 0.143918 -1.410199 11.654089 0.000001 0.000002 0.000000 0.616578 -2.867370 24.260560 0.144290 -1.411955 11.668778 0.000002 0.000001 0.000004 0.000001 0.000002 -0.000001 0.000002 -0.000000 -0.000000 0.000000 -0.000000 0.000000 0.000002 -0.000000 -0.000000 0.000002 -0.000000 -0.000000 0.000002 -0.000000 -0.000000 0.000000 -0.000000 -0.000000 0.000002 -0.000000 -0.000000 0.000002 -0.000000 -0.000000 0.000002 -0.000000 -0.000000 0.000000 -0.000000 -0.000000 -0.000000 0.000000 0.000000 -0.000000 0.000000 0.000000 -0.000000 0.000000 0.000000 
-40.454319 59.534645 24.624748 -7.058389 6.628345 13.269945 -0.000000 -0.000000 -0.000000 -28.503810 17.515967 17.709437 74.666371 1.277047 -2.192037 -20.035499 6.378834 -14.244367 0.000000 0.000001 -0.000000 0.000001 0.000001 0.000001 -44.936870 10.984886 11.175507 69.554692 -2.420141 1.469758 -7.558494 17.297782 -13.030636 0.000000 -0.000001 -0.000000 -0.000004 0.000001 0.000001 4.895767 -2.615879 -2.947489 9.686325 -5.327074 -5.432135 9.686316 -5.327073 -5.432135 0.765845 -0.206338 1.724211 -24.585469 -14.758032 4.921076 -0.000000 -0.000000 -0.000000 -0.000000 -0.000000 -0.000000 -0.000000 -0.000000 -0.000000 -0.000000 -0.000000 -0.000000 -0.000000 -0.000000 0.000000 -0.000000 -0.000000 -0.000000 -0.000000 -0.000000 0.000000 -0.000000 -0.000000 -0.000000 -0.000000 -0.000000 -0.000000 -0.734642 3.952845 5.554701 11.050339 -23.465328 -53.801564 -0.000088 -73.151319 -0.000114 -6.056816 11.682140 16.614493 7.435656 -0.982687 12.267166 0.625917 0.078934 -1.235792 -0.000001 0.000001 0.000001 0.010590 1.150060 -0.477691 0.037303 0.717191 -5.953956 0.000002 0.000002 0.000002 0.005497 1.970526 -0.026988 0.036759 0.711982 -5.910650 -0.000002 0.000000 0.000001 -0.004354 1.436470 0.259947 0.040808 0.750116 -6.228455 0.000002 0.000003 -0.000003 -0.042240 5.268413 0.790780 0.029920 -3.300898 -6.766384 -0.000001 0.000003 -0.000002 0.000001 0.000000 0.000002 -0.345805 -2.738024 1.256873 2.977028 14.585533 57.495522 0.000042 72.150703 -0.000017 -22.831898 -6.318389 -0.442161 -6.902015 -0.068522 -4.652896 0.851483 -0.107494 1.713918 0.000001 -0.000003 -0.000000 1.499685 -4.771651 24.745980 0.140221 -1.392170 11.503052 0.000001 0.000003 -0.000004 0.943105 -3.574515 24.734429 0.140224 -1.392175 11.503044 0.000000 0.000000 -0.000001 0.558871 -2.739416 24.266260 0.144044 -1.410777 11.658936 0.000003 0.000004 -0.000002 0.481587 -2.568378 24.293540 0.144246 -1.411780 11.667373 0.000001 0.000002 -0.000001 0.000000 -0.000001 0.000001 -0.000001 -0.000000 -0.000000 0.000001 0.000000 -0.000000 -0.000001 -0.000000 -0.000000 -0.000001 -0.000000 -0.000000 -0.000001 -0.000000 -0.000000 0.000001 0.000000 -0.000000 -0.000001 -0.000000 -0.000000 -0.000001 -0.000000 -0.000000 -0.000001 -0.000000 -0.000000 0.000001 0.000000 -0.000000 -0.000000 -0.000000 -0.000000 -0.000000 -0.000000 -0.000000 -0.000000 -0.000000 -0.000000 
-38.952858 59.952744 25.366398 -8.632187 1.882908 11.849519 0.000001 -0.000000 -0.000001 -23.801365 12.800236 26.128149 61.949932 3.787140 -1.622774 -9.567300 4.685978 -16.914697 -0.000000 -0.000001 -0.000000 0.000003 -0.000002 -0.000001 -38.564740 6.286035 7.901653 68.057200 -2.378918 1.698800 -12.418610 20.895103 -14.546040 0.000000 0.000001 -0.000000 -0.000001 0.000001 -0.000000 4.794166 -1.842882 -2.280715 9.483836 -3.837190 -5.141960 9.483838 -3.837189 -5.141958 0.845681 0.028007 1.686438 -19.162768 -17.805094 3.139149 0.000000 -0.000000 -0.000000 0.000000 -0.000000 -0.000000 0.000000 -0.000000 0.000000 0.000000 -0.000000 -0.000000 -0.000000 -0.000002 0.000000 0.000000 -0.000000 -0.000000 -0.000000 -0.000002 0.000000 0.000000 -0.000000 -0.000000 0.000000 -0.000000 -0.000000 -0.792790 4.227144 5.770701 -0.316367 -22.847126 -62.721873 0.000045 -68.536406 0.000045 -6.010472 14.311756 20.646605 6.361509 -0.093612 10.936005 0.625978 0.079021 -1.235840 0.000001 0.000002 0.000002 0.021336 1.473673 -0.777165 0.010637 0.383338 -3.178119 -0.000000 -0.000002 -0.000004 0.011941 2.109691 -0.186536 0.010302 0.377461 -3.129269 0.000003 0.000002 0.000001 -0.003562 1.361768 0.231923 0.013265 0.427976 -3.548689 0.000001 -0.000000 0.000003 -0.036988 4.943399 0.739880 -0.000388 -3.618154 -4.127216 0.000002 0.000001 -0.000000 0.000000 0.000002 -0.000001 -0.382067 -2.777559 0.123158 5.660118 11.966786 58.285085 -0.000026 76.853097 0.000009 -23.158747 -3.267767 -6.732943 -6.255668 -0.487953 -5.198129 0.683956 -0.119131 1.491922 0.000001 -0.000001 -0.000001 1.757065 -5.292478 25.033292 0.140236 -1.392158 11.503034 0.000001 -0.000001 -0.000005 1.095829 -3.893588 24.974503 0.140226 -1.392179 11.503049 0.000000 0.000001 -0.000001 0.468245 -2.538657 24.283742 0.144155 -1.411257 11.663059 -0.000001 -0.000004 -0.000001 0.298098 -2.162555 24.337520 0.144207 -1.411574 11.665675 0.000001 -0.000002 0.000004 -0.000001 0.000004 -0.000003 -0.000001 -0.000000 0.000000 -0.000001 -0.000000 0.000000 -0.000001 -0.000000 0.000000 -0.000001 -0.000000 0.000000 -0.000001 -0.000000 0.000000 -0.000001 -0.000000 0.000000 -0.000001 -0.000000 0.000000 -0.000001 -0.000000 0.000000 -0.000001 -0.000000 0.000000 -0.000001 -0.000000 0.000000 0.000001 -0.000000 -0.000001 0.000001 -0.000000 -0.000001 0.000001 -0.000000 -0.000001 
